<svg width="20" height="20" viewBox="0 0 20 20" fill="none" xmlns="http://www.w3.org/2000/svg">
<path fill-rule="evenodd" clip-rule="evenodd" d="M9.95602 4.58446L10.0751 4.58667L10.1691 4.60052L10.2644 4.62617L10.325 4.64913L10.4102 4.69101L10.4844 4.73835L10.566 4.805L10.6281 4.86905L13.9615 8.69255C14.2639 9.03946 14.2279 9.56587 13.8809 9.86831C13.5607 10.1475 13.0875 10.1382 12.7788 9.86231L12.7052 9.78778L10.8333 7.64083V14.5833C10.8333 15.0436 10.4602 15.4167 9.99999 15.4167C9.57263 15.4167 9.2204 15.095 9.17226 14.6805L9.16666 14.5833V7.64L7.2948 9.78778C6.99236 10.1347 6.46596 10.1707 6.11904 9.86831C5.79882 9.58913 5.74346 9.11912 5.97472 8.77561L6.03852 8.69255L9.38884 4.85005L9.46242 4.77988L9.54356 4.71933L9.65062 4.65988L9.75343 4.62041L9.85167 4.59651L9.90281 4.58894C9.92209 4.58675 9.93904 4.58534 9.95602 4.58446Z" fill="#0C0507"/>
</svg>
